<svg width="108" height="109" viewBox="0 0 108 109" fill="none" xmlns="http://www.w3.org/2000/svg">
<g id="Group">
<path id="Vector" d="M2.23231 91.7848C6.31231 101.741 12.9648 103.813 17.642 101.741C26.6876 97.7332 50.1849 93.2553 74.3174 103.781C106.28 117.722 113.08 96.6888 102.88 75.4131C92.6789 54.1374 89.2213 32.6219 100.981 20.7681C112.74 8.91426 97.3517 -9.62941 70.0235 9.67326C52.3629 22.1473 39.4021 19.3697 32.4422 15.8434C25.8827 12.5199 18.5877 9.04536 11.753 11.7583C3.45991 15.0502 0.192161 22.1874 12.8098 38.1319C30.69 60.7265 -6.91356 69.4682 2.23231 91.7848Z" fill="#E6E7F4"/>
<g id="Group_2">
<path id="Vector_2" d="M18.8447 43.2847H82.342V92.1178C82.342 92.2173 82.3025 92.3127 82.2321 92.383C82.1618 92.4533 82.0664 92.4928 81.967 92.4928H19.2197C19.1203 92.4928 19.0249 92.4533 18.9546 92.383C18.8842 92.3127 18.8447 92.2173 18.8447 92.1178V43.2847Z" fill="#B0B3DD"/>
<path id="Vector_3" d="M66.4126 24.1479H36.8877L18.8447 43.2844H82.342L66.4126 24.1479Z" fill="#000B90"/>
<path id="Vector_4" d="M24.8591 16.4932L36.8877 24.1478L18.8448 43.2843L5.17578 32.8959L24.8591 16.4932Z" fill="#B0B3DD"/>
<path id="Vector_5" d="M78.4412 16.4932L66.4126 24.1478L82.342 43.2843L98.1245 32.8959L78.4412 16.4932Z" fill="#B0B3DD"/>
<g id="Group_3">
<path id="Vector_6" d="M44.6448 16.8847C44.9842 16.7238 45.2483 16.4379 45.3819 16.0868C45.5154 15.7357 45.5081 15.3465 45.3615 15.0007L39.9503 2.24107C39.8737 2.06034 39.7613 1.89697 39.6199 1.76079C39.4785 1.62461 39.311 1.51843 39.1275 1.44864C38.944 1.37884 38.7483 1.34688 38.5521 1.35466C38.356 1.36244 38.1634 1.40981 37.986 1.49392L36.9435 1.98825C36.7662 2.07236 36.6076 2.19146 36.4775 2.33841C36.3473 2.48535 36.2482 2.65711 36.1861 2.84334C36.124 3.02957 36.1002 3.22643 36.1161 3.42209C36.1321 3.61775 36.1874 3.80817 36.2788 3.9819L42.7324 16.2471C42.9074 16.5796 43.204 16.8315 43.5604 16.9504C43.9168 17.0692 44.3053 17.0457 44.6448 16.8847Z" fill="#000B90"/>
<path id="Vector_7" d="M51.4292 15.6478C51.6748 15.6303 51.9042 15.5186 52.0695 15.3359C52.2347 15.1533 52.3229 14.9138 52.3158 14.6676L52.0485 5.58393C52.0447 5.45526 52.0149 5.32869 51.9609 5.21182C51.907 5.09495 51.83 4.9902 51.7345 4.90386C51.639 4.81752 51.5271 4.75138 51.4054 4.70941C51.2837 4.66744 51.1548 4.6505 51.0264 4.65963L50.2716 4.7134C50.1433 4.72254 50.0181 4.75753 49.9036 4.81628C49.7891 4.87502 49.6877 4.95631 49.6054 5.05524C49.5231 5.15418 49.4617 5.26873 49.4248 5.39201C49.3879 5.5153 49.3764 5.64476 49.3908 5.77263L50.4128 14.8026C50.4404 15.0474 50.5616 15.2721 50.751 15.4296C50.9405 15.5871 51.1835 15.6653 51.4292 15.6478Z" fill="#000B90"/>
<path id="Vector_8" d="M56.6664 19.0058C57.3422 19.3964 58.2908 19.0379 58.8169 18.1929L68.1593 3.18894C68.7174 2.29262 68.5851 1.20017 67.8684 0.785791L66.8694 0.208293C66.1527 -0.206157 65.1399 0.224192 64.6416 1.15502L56.2981 16.7364C55.8282 17.614 55.9907 18.615 56.6664 19.0058Z" fill="#000B90"/>
</g>
</g>
</g>
</svg>
