<svg width="24" height="24" viewBox="0 0 24 24" fill="none" xmlns="http://www.w3.org/2000/svg">
<path d="M5.25929 0.112499C5.07179 0.168749 4.93585 0.229687 4.9546 0.253124C4.97335 0.271873 4.95929 0.285936 4.92179 0.276562C4.8421 0.257812 4.49992 0.417187 4.49992 0.46875C4.49992 0.487499 4.45304 0.515625 4.3921 0.534374C4.29835 0.557812 3.75929 1.03125 3.82492 1.03125C3.83429 1.03125 3.78742 1.09219 3.71242 1.1625C3.6421 1.23281 3.53429 1.37812 3.48273 1.47656C3.24835 1.92188 3.13117 2.18437 3.1171 2.29688C3.10773 2.3625 3.09835 2.41406 3.09367 2.41406C3.01867 2.41406 2.98585 21.0469 3.05617 21.4219C3.07492 21.5109 3.10304 21.6469 3.1171 21.7266C3.15929 21.9234 3.46867 22.5609 3.55773 22.6266C3.59992 22.6594 3.61398 22.6875 3.59523 22.6875C3.57648 22.6875 3.60929 22.7344 3.67023 22.7953C3.73585 22.8516 3.78742 22.9078 3.78742 22.9219C3.78742 22.9641 4.12492 23.3062 4.12492 23.2641C4.12492 23.2453 4.15773 23.2781 4.19992 23.3344C4.23742 23.3906 4.29367 23.4375 4.32179 23.4375C4.34992 23.4375 4.44367 23.4891 4.52335 23.5547C4.60773 23.6156 4.68742 23.6531 4.70617 23.6391C4.72023 23.6203 4.73429 23.6344 4.73429 23.6625C4.73429 23.7141 5.11398 23.8781 5.24054 23.8734C5.28273 23.8734 5.34367 23.8922 5.37648 23.9156C5.40929 23.9391 5.45617 23.9484 5.4796 23.9344C5.50304 23.9156 5.53585 23.925 5.5546 23.9531C5.57335 23.9812 7.72492 24 11.9671 24C18.2109 24 18.6327 23.9906 18.7499 23.8594C18.764 23.8453 18.8062 23.8312 18.8437 23.8266C19.0171 23.8078 19.1296 23.7656 19.364 23.6203C19.5046 23.5359 19.6265 23.4469 19.6312 23.4281C19.6405 23.4047 19.6687 23.4 19.6921 23.4187C19.7155 23.4328 19.7343 23.4234 19.7343 23.3953C19.7343 23.3719 19.7765 23.3344 19.8327 23.3203C19.8843 23.3016 19.9171 23.2781 19.903 23.2594C19.889 23.2453 19.9405 23.1937 20.0202 23.1469C20.0999 23.0953 20.1749 23.0156 20.189 22.9688C20.203 22.9172 20.264 22.8469 20.3249 22.8047C20.3859 22.7672 20.4374 22.7016 20.4374 22.6687C20.4374 22.6312 20.4562 22.5938 20.4749 22.5844C20.5312 22.5609 20.864 21.8438 20.8827 21.7031C20.8921 21.6375 20.9062 21.5859 20.9109 21.5859C20.9577 21.5859 20.9718 20.4094 20.9859 14.2125L21.0046 7.07812H17.578H14.1562V3.53906V0L9.88117 0.00468636C5.63898 0.00937462 5.59679 0.014061 5.25929 0.112499ZM8.90148 13.575C9.26241 13.6734 9.55773 13.8984 9.72648 14.2078C9.85773 14.4422 9.8671 14.4984 9.8671 14.9297C9.8671 15.3609 9.85773 15.4172 9.73116 15.6469C9.58117 15.9187 9.38898 16.0828 9.05617 16.2281C8.88273 16.3078 8.70929 16.3312 8.24054 16.35L7.64054 16.3734V17.1375V17.9062H7.0546H6.46867V15.7031V13.5H7.55616C8.39991 13.5 8.69991 13.5187 8.90148 13.575ZM12.7546 13.6266C13.3312 13.8422 13.6218 14.0531 13.8796 14.4516C14.2921 15.0844 14.3155 16.1859 13.9359 16.8844C13.7812 17.1703 13.4437 17.4844 13.1296 17.6437C12.689 17.8687 12.4405 17.9062 11.3343 17.9062H10.3124V15.6984V13.4906L11.4046 13.5094C12.3562 13.5281 12.5249 13.5422 12.7546 13.6266ZM17.9062 13.9922V14.4844H16.8984H15.8905V14.8125V15.1406H16.6874H17.4843V15.6328V16.125H16.6874H15.8905V17.0156V17.9062H15.3046H14.7187V15.7031V13.5H16.3124H17.9062V13.9922Z" fill="white"/>
<path d="M7.64062 14.925V15.375H7.9125C8.50312 15.3703 8.73281 15.2297 8.70937 14.8922C8.68594 14.6063 8.53125 14.5125 8.03437 14.4891L7.64062 14.475V14.925Z" fill="white"/>
<path d="M11.4844 15.7031V16.9219H11.7562C12.1734 16.9219 12.4922 16.8094 12.7219 16.5797C12.9703 16.3266 13.05 16.0641 13.0219 15.5906C12.9937 15.1828 12.8437 14.8781 12.5953 14.7234C12.3984 14.6016 11.9484 14.4844 11.6859 14.4844H11.4844V15.7031Z" fill="white"/>
<path d="M14.1562 3.53906V7.03125H17.5359H20.9156L20.3859 6.47812C19.1766 5.22656 16.8563 2.78906 16.2422 2.13281C15.3844 1.21406 14.2406 0.0468745 14.1938 0.0468745C14.175 0.0468745 14.1562 1.61719 14.1562 3.53906Z" fill="#E6E6E6"/>
<path d="M6.49219 15.7266C6.49219 16.9407 6.49687 17.4422 6.50156 16.8422C6.51094 16.2469 6.51094 15.2532 6.50156 14.6391C6.49687 14.025 6.49219 14.5125 6.49219 15.7266Z" fill="#E6E6E6"/>
<path d="M10.3359 15.7266C10.3359 16.9407 10.3406 17.4422 10.3453 16.8422C10.3547 16.2469 10.3547 15.2532 10.3453 14.6391C10.3406 14.025 10.3359 14.5125 10.3359 15.7266Z" fill="#E6E6E6"/>
<path d="M17.8782 14.0156C17.8782 14.2875 17.8829 14.3953 17.8922 14.2594C17.9016 14.1281 17.9016 13.9031 17.8922 13.7672C17.8829 13.636 17.8782 13.7438 17.8782 14.0156Z" fill="#E6E6E6"/>
<path d="M7.86555 16.3454C8.00148 16.3548 8.21242 16.3548 8.3343 16.3454C8.45617 16.336 8.34367 16.3313 8.08586 16.3313C7.82805 16.3313 7.72961 16.336 7.86555 16.3454Z" fill="#E6E6E6"/>
<path d="M11.5453 16.9548C11.6156 16.9641 11.7281 16.9641 11.8031 16.9548C11.8734 16.9454 11.8125 16.936 11.6718 16.936C11.5312 16.936 11.4703 16.9454 11.5453 16.9548Z" fill="#E6E6E6"/>
<path d="M16.9452 2.85937C17.0718 2.98594 17.1843 3.09375 17.1983 3.09375C17.2124 3.09375 17.1186 2.98594 16.9921 2.85937C16.8655 2.72812 16.753 2.625 16.7389 2.625C16.7249 2.625 16.8186 2.72812 16.9452 2.85937Z" fill="#D7263D"/>
<path d="M18.1407 4.10156C18.3845 4.34531 18.5954 4.54688 18.6095 4.54688C18.6188 4.54688 18.4313 4.34531 18.1876 4.10156C17.9438 3.85781 17.7329 3.65625 17.7188 3.65625C17.7095 3.65625 17.897 3.85781 18.1407 4.10156Z" fill="#D7263D"/>
<path d="M19.8282 5.85941C20.4329 6.49222 20.9485 7.01723 20.9766 7.0266C21.0282 7.04535 19.1391 5.08129 18.886 4.8516C18.8016 4.77191 19.2235 5.2266 19.8282 5.85941Z" fill="#D7263D"/>
<path d="M6.51562 15.7219V17.9062H7.05469H7.59375V17.1141V16.3219L8.21719 16.3031C8.7375 16.2891 8.87344 16.2703 9.07031 16.1813C9.59063 15.9422 9.84375 15.5344 9.84375 14.9297C9.83906 14.3391 9.62344 13.9641 9.11719 13.6969C8.88281 13.5703 8.87813 13.5703 7.70156 13.5563L6.51562 13.5375V15.7219ZM8.54531 14.5406C8.70469 14.625 8.76094 14.7281 8.76562 14.9203C8.76562 15.0563 8.73281 15.1313 8.62969 15.2391C8.49844 15.3703 8.475 15.375 8.04375 15.375H7.59375V14.9297V14.4844H8.02031C8.25469 14.4844 8.48906 14.5078 8.54531 14.5406Z" fill="#D7263D"/>
<path d="M10.3594 15.7313V17.9156L11.3813 17.8922C12.1734 17.8781 12.4547 17.8547 12.6562 17.7891C13.6734 17.4656 14.1563 16.8 14.1563 15.7313C14.1563 14.8031 13.8375 14.2125 13.125 13.8328C12.6844 13.5985 12.3703 13.5469 11.3109 13.5469H10.3594V15.7313ZM12.3328 14.5547C12.8016 14.7235 13.0312 15.0422 13.0688 15.5906C13.125 16.4531 12.7078 16.9125 11.8266 16.9594L11.4375 16.9828V15.7313V14.4844H11.7844C11.9719 14.4844 12.2203 14.5172 12.3328 14.5547Z" fill="#D7263D"/>
<path d="M14.7656 15.7266V17.9062H15.3047H15.8438V17.0156V16.125H16.6406H17.4375V15.6563V15.1875H16.6406H15.8438V14.8359V14.4844H16.8516H17.8594V14.0156V13.5469H16.3125H14.7656V15.7266Z" fill="#D7263D"/>
</svg>
